<svg width="1419" height="114" viewBox="0 0 1419 114" fill="none" xmlns="http://www.w3.org/2000/svg">
<g clip-path="url(#clip0_602_1084)">
<path d="M76.5523 77.0723V45.5216H89.063C91.1956 45.5216 92.9411 45.9525 94.2996 46.8143C95.6726 47.6615 96.6878 48.7497 97.3451 50.0789C98.017 51.4081 98.3529 52.7812 98.3529 54.198C98.3529 55.9362 97.9367 57.4115 97.1041 58.6239C96.2861 59.8362 95.1687 60.6542 93.7518 61.0778V59.9823C95.7383 60.4351 97.2428 61.3773 98.2653 62.8087C99.3024 64.2402 99.8209 65.8688 99.8209 67.6947C99.8209 69.5644 99.4631 71.2003 98.7473 72.6026C98.0316 74.0048 96.9653 75.1003 95.5484 75.8891C94.1462 76.6779 92.408 77.0723 90.3338 77.0723H76.5523ZM81.8984 72.0986H89.6765C90.5967 72.0986 91.422 71.9161 92.1524 71.5509C92.8827 71.1711 93.4524 70.6453 93.8614 69.9734C94.285 69.2868 94.4967 68.4762 94.4967 67.5413C94.4967 66.6941 94.3142 65.9346 93.949 65.2627C93.5838 64.5908 93.0507 64.0576 92.3496 63.6632C91.6484 63.2542 90.8085 63.0497 89.8299 63.0497H81.8984V72.0986ZM81.8984 58.1199H88.9973C89.7568 58.1199 90.4361 57.9739 91.0349 57.6817C91.6338 57.3896 92.1085 56.9587 92.4591 56.389C92.8097 55.8194 92.9849 55.1182 92.9849 54.2857C92.9849 53.1901 92.6344 52.2772 91.9333 51.5469C91.2321 50.8165 90.2535 50.4514 88.9973 50.4514H81.8984V58.1199ZM114.648 77.7296C112.282 77.7296 110.215 77.1964 108.447 76.1301C106.68 75.0638 105.307 73.5958 104.328 71.7262C103.364 69.8419 102.882 67.6801 102.882 65.2408C102.882 62.7576 103.379 60.5812 104.372 58.7115C105.365 56.8418 106.746 55.3812 108.513 54.3295C110.281 53.2778 112.325 52.7519 114.648 52.7519C117.029 52.7519 119.103 53.2851 120.87 54.3514C122.638 55.4177 124.011 56.893 124.99 58.7772C125.968 60.6469 126.458 62.8014 126.458 65.2408C126.458 67.6947 125.961 69.8638 124.968 71.7481C123.989 73.6178 122.616 75.0857 120.849 76.152C119.081 77.2037 117.014 77.7296 114.648 77.7296ZM114.648 72.7779C116.751 72.7779 118.314 72.0767 119.337 70.6745C120.359 69.2722 120.87 67.461 120.87 65.2408C120.87 62.9475 120.352 61.1216 119.315 59.7632C118.278 58.3902 116.722 57.7036 114.648 57.7036C113.231 57.7036 112.063 58.025 111.142 58.6677C110.237 59.2958 109.565 60.1795 109.127 61.3188C108.688 62.4436 108.469 63.7509 108.469 65.2408C108.469 67.534 108.988 69.3672 110.025 70.7402C111.077 72.0986 112.618 72.7779 114.648 72.7779ZM131.723 77.0723V44.8643H137.004V77.0723H131.723ZM153.054 77.7296C150.877 77.7296 148.979 77.1818 147.357 76.0863C145.736 74.9908 144.48 73.5009 143.589 71.6166C142.698 69.7323 142.252 67.6071 142.252 65.2408C142.252 62.8452 142.698 60.7126 143.589 58.843C144.494 56.9587 145.772 55.4761 147.423 54.3952C149.073 53.2997 151.016 52.7519 153.251 52.7519C155.5 52.7519 157.385 53.2997 158.904 54.3952C160.438 55.4761 161.599 56.9587 162.388 58.843C163.176 60.7273 163.571 62.8598 163.571 65.2408C163.571 67.5925 163.176 69.7177 162.388 71.6166C161.599 73.5009 160.423 74.9908 158.86 76.0863C157.297 77.1818 155.362 77.7296 153.054 77.7296ZM153.864 72.997C155.281 72.997 156.421 72.6756 157.282 72.0329C158.159 71.3756 158.794 70.4627 159.189 69.2941C159.598 68.1256 159.802 66.7745 159.802 65.2408C159.802 63.6924 159.598 62.3413 159.189 61.1874C158.794 60.0188 158.174 59.1132 157.326 58.4705C156.479 57.8132 155.384 57.4845 154.04 57.4845C152.623 57.4845 151.454 57.8351 150.534 58.5362C149.614 59.2228 148.935 60.1576 148.496 61.3407C148.058 62.5093 147.839 63.8093 147.839 65.2408C147.839 66.6868 148.051 68.0014 148.475 69.1846C148.913 70.3531 149.577 71.2807 150.468 71.9672C151.359 72.6537 152.491 72.997 153.864 72.997ZM159.802 77.0723V60.4643H159.145V45.5216H164.469V77.0723H159.802ZM181.063 77.7296C178.697 77.7296 176.63 77.1964 174.863 76.1301C173.095 75.0638 171.722 73.5958 170.744 71.7262C169.78 69.8419 169.298 67.6801 169.298 65.2408C169.298 62.7576 169.794 60.5812 170.787 58.7115C171.781 56.8418 173.161 55.3812 174.928 54.3295C176.696 53.2778 178.741 52.7519 181.063 52.7519C183.444 52.7519 185.518 53.2851 187.286 54.3514C189.053 55.4177 190.426 56.893 191.405 58.7772C192.384 60.6469 192.873 62.8014 192.873 65.2408C192.873 67.6947 192.376 69.8638 191.383 71.7481C190.404 73.6178 189.031 75.0857 187.264 76.152C185.496 77.2037 183.43 77.7296 181.063 77.7296ZM181.063 72.7779C183.167 72.7779 184.73 72.0767 185.752 70.6745C186.775 69.2722 187.286 67.461 187.286 65.2408C187.286 62.9475 186.767 61.1216 185.73 59.7632C184.693 58.3902 183.137 57.7036 181.063 57.7036C179.646 57.7036 178.478 58.025 177.558 58.6677C176.652 59.2958 175.98 60.1795 175.542 61.3188C175.104 62.4436 174.885 63.7509 174.885 65.2408C174.885 67.534 175.403 69.3672 176.44 70.7402C177.492 72.0986 179.033 72.7779 181.063 72.7779Z" fill="white"/>
<path d="M33.333 60.4475H50.6335C56.5342 60.4475 61.3177 65.231 61.3177 71.1317C61.3177 77.0325 56.5342 81.8159 50.6335 81.8159H33.333V60.4475Z" fill="white"/>
<path d="M33.333 41.75H44.7874C49.213 41.75 52.8006 45.3376 52.8006 49.7632C52.8006 54.1887 49.213 57.7763 44.7875 57.7763H33.333V41.75Z" fill="white"/>
<g clip-path="url(#clip1_602_1084)">
<g clip-path="url(#clip2_602_1084)">
<path d="M288.285 43.4491C288.24 43.362 288.212 43.2668 288.204 43.1689C288.195 43.0711 288.206 42.9726 288.236 42.879C288.266 42.7854 288.314 42.6986 288.377 42.6235C288.44 42.5484 288.518 42.4866 288.605 42.4414C291.281 41.0809 294.253 40.4075 297.253 40.4822C300.254 40.5568 303.189 41.377 305.794 42.8689C305.879 42.918 305.954 42.9836 306.014 43.0618C306.074 43.14 306.118 43.2293 306.143 43.3245C306.168 43.4198 306.174 43.5191 306.161 43.6168C306.148 43.7144 306.115 43.8085 306.066 43.8935L297.461 58.6609C297.395 58.774 297.301 58.8678 297.188 58.933C297.074 58.9981 296.946 59.0323 296.815 59.0321H296.796C296.662 59.0285 296.531 58.9892 296.418 58.9181C296.304 58.847 296.212 58.7469 296.15 58.628L288.285 43.4491ZM296.353 62.9705V62.969L288.488 47.7902C288.397 47.6144 288.24 47.482 288.051 47.4217C287.862 47.3614 287.657 47.3783 287.481 47.4685C285.385 48.5433 283.522 50.0215 281.998 51.8183C280.475 53.6151 279.321 55.695 278.604 57.9387C277.886 60.1825 277.619 62.5458 277.817 64.8931C278.015 67.2405 278.675 69.5256 279.758 71.6173C280.842 73.709 282.328 75.5661 284.131 77.082C285.934 78.598 288.019 79.7429 290.265 80.4512C292.512 81.1594 294.876 81.4169 297.223 81.209C299.569 81.0011 301.852 80.3319 303.939 79.2397C304.114 79.1479 304.246 78.9905 304.306 78.8018C304.365 78.6131 304.348 78.4085 304.258 78.2326L296.353 62.9705ZM305.573 77.3176L305.633 77.4374C305.723 77.6139 305.879 77.7481 306.067 77.8115C306.144 77.8371 306.225 77.8473 306.306 77.8415C306.425 77.8382 306.541 77.8128 306.651 77.7666C306.923 77.6316 307.188 77.4817 307.444 77.3176C308.205 76.876 308.931 76.3756 309.614 75.8209H304.795L305.573 77.3176ZM304.016 74.3242H311.245C311.71 73.8572 312.14 73.357 312.533 72.8276H303.238L304.016 74.3242ZM302.475 71.3309H313.595C313.902 70.8504 314.177 70.3504 314.418 69.8342H301.697L302.475 71.3309ZM300.918 68.3375H315.077C315.276 67.8489 315.445 67.3492 315.586 66.8408H300.14L300.918 68.3375ZM299.362 65.3441H315.96C316.05 64.8502 316.125 64.3563 316.17 63.8474H298.598L299.362 65.3441ZM307.384 46.4259C307.3 46.3737 307.206 46.34 307.108 46.3271C307.01 46.3142 306.91 46.3224 306.815 46.3511C306.718 46.3732 306.627 46.4153 306.547 46.4745C306.467 46.5338 306.401 46.609 306.351 46.6953L305.947 47.3838H308.836C308.369 47.0388 307.885 46.719 307.384 46.4259ZM310.647 48.8805H305.079L304.211 50.3772H312.069C311.626 49.8496 311.151 49.3498 310.647 48.8805ZM313.191 51.8739H303.328L302.46 53.3706H314.104C313.834 52.8516 313.529 52.3515 313.191 51.8739ZM314.823 54.8673H301.592L300.724 56.3639H315.406C315.24 55.8543 315.045 55.3546 314.823 54.8673ZM315.825 57.8606H299.841L298.973 59.3573H316.095C316.035 58.8534 315.945 58.3536 315.825 57.8606ZM316.244 60.854H298.104L297.745 61.4677C297.68 61.5757 297.645 61.6989 297.642 61.8249C297.64 61.9509 297.67 62.0754 297.73 62.1861L297.82 62.3507H316.274C316.289 62.201 316.289 62.0364 316.289 61.8867C316.289 61.5425 316.274 61.1983 316.244 60.854Z" fill="white"/>
<path d="M287.941 46.7286C287.667 46.2087 287.021 46.0072 286.517 46.3102C282.53 48.7092 279.551 52.4984 278.169 56.9679C276.683 61.7772 277.167 66.9801 279.517 71.4321C281.866 75.8841 285.888 79.2204 290.697 80.7071C295.167 82.0887 299.976 81.7677 304.207 79.8298C304.741 79.585 304.939 78.9382 304.665 78.4183L296.303 62.5735L287.941 46.7286Z" fill="white"/>
</g>
<path d="M342.994 47.367C345.074 47.367 346.846 47.7008 348.309 48.3685C349.773 49.0362 350.89 49.9992 351.661 51.2575C352.431 52.5158 352.816 54.0438 352.816 55.8414C352.816 57.639 352.431 59.167 351.661 60.4253C350.89 61.6836 349.773 62.6466 348.309 63.3143C346.846 63.982 345.074 64.3158 342.994 64.3158H337.947V72.7903H331.322V47.367H342.994ZM341.954 59.3467C343.34 59.3467 344.38 59.0643 345.074 58.4993C345.793 57.9086 346.152 57.0227 346.152 55.8414C346.152 54.6601 345.793 53.787 345.074 53.222C344.38 52.6314 343.34 52.3361 341.954 52.3361H337.947V59.3467H341.954ZM356.59 72.7903V53.5302H362.368L362.638 57.6904C363.126 56.2523 363.845 55.1352 364.795 54.3391C365.771 53.543 367.003 53.145 368.493 53.145C368.981 53.145 369.392 53.1835 369.725 53.2605C370.085 53.3376 370.367 53.4403 370.573 53.5687L369.918 58.9615C369.661 58.8588 369.327 58.7818 368.916 58.7304C368.531 58.6534 368.056 58.6148 367.491 58.6148C366.721 58.6148 366.002 58.7818 365.334 59.1156C364.666 59.4495 364.127 59.9502 363.716 60.6179C363.331 61.2599 363.138 62.0817 363.138 63.0832V72.7903H356.59ZM382.315 73.1755C380.183 73.1755 378.334 72.7774 376.768 71.9814C375.227 71.1853 374.033 70.0425 373.186 68.5531C372.338 67.0636 371.914 65.266 371.914 63.1602C371.914 61.0545 372.338 59.2569 373.186 57.7674C374.033 56.278 375.214 55.1352 376.729 54.3391C378.27 53.543 380.029 53.145 382.007 53.145C384.035 53.145 385.756 53.543 387.168 54.3391C388.607 55.1095 389.698 56.1881 390.443 57.5748C391.187 58.9359 391.56 60.5023 391.56 62.2743C391.56 62.7365 391.547 63.1988 391.521 63.661C391.496 64.1232 391.457 64.5084 391.406 64.8166H376.152V61.3113H388.517L385.397 62.5054C385.397 60.9646 385.114 59.7833 384.549 58.9615C384.01 58.1398 383.162 57.7289 382.007 57.7289C381.185 57.7289 380.479 57.9215 379.888 58.3067C379.323 58.6919 378.887 59.2954 378.578 60.1171C378.296 60.9389 378.155 61.9918 378.155 63.2758C378.155 64.5341 378.322 65.5613 378.655 66.3574C378.989 67.1278 379.464 67.6928 380.081 68.0523C380.697 68.3861 381.442 68.5531 382.315 68.5531C383.291 68.5531 384.061 68.3605 384.626 67.9753C385.217 67.5901 385.653 67.0508 385.936 66.3574L391.175 68.0908C390.815 69.1951 390.186 70.1324 389.287 70.9028C388.414 71.6475 387.361 72.2125 386.128 72.5977C384.921 72.9829 383.65 73.1755 382.315 73.1755ZM403.312 73.1755C401.386 73.1755 399.589 72.8673 397.919 72.251C396.276 71.609 394.915 70.6974 393.836 69.5161L396.918 65.8952C397.56 66.7169 398.407 67.4103 399.46 67.9753C400.539 68.5145 401.733 68.7842 403.043 68.7842C403.839 68.7842 404.494 68.6686 405.007 68.4375C405.521 68.2064 405.778 67.8469 405.778 67.3589C405.778 66.9994 405.649 66.7169 405.392 66.5115C405.136 66.2804 404.622 66.0878 403.852 65.9337L401.155 65.3944C398.741 64.9065 397.021 64.1874 395.993 63.2373C394.992 62.2614 394.491 60.9903 394.491 59.4238C394.491 58.3709 394.812 57.3694 395.454 56.4192C396.096 55.4434 397.085 54.6601 398.42 54.0695C399.756 53.4531 401.463 53.145 403.543 53.145C405.495 53.145 407.216 53.4275 408.705 53.9924C410.195 54.5574 411.376 55.3792 412.249 56.4577L409.129 60.0016C408.513 59.2312 407.716 58.6277 406.741 58.1911C405.765 57.7546 404.789 57.5363 403.813 57.5363C403.197 57.5363 402.67 57.6005 402.234 57.7289C401.823 57.8316 401.515 57.9857 401.309 58.1911C401.104 58.3966 401.001 58.6534 401.001 58.9615C401.001 59.2954 401.155 59.5907 401.463 59.8475C401.797 60.0786 402.401 60.2841 403.274 60.4638L406.779 61.1572C408.757 61.5167 410.182 62.1715 411.055 63.1217C411.928 64.0719 412.365 65.2146 412.365 66.55C412.365 67.8083 412.031 68.9383 411.363 69.9398C410.695 70.9413 409.694 71.7374 408.358 72.328C407.023 72.893 405.341 73.1755 403.312 73.1755ZM423.813 47.4055V65.9337C423.813 66.8582 424.031 67.5259 424.468 67.9367C424.93 68.3219 425.559 68.5145 426.355 68.5145C426.972 68.5145 427.498 68.4503 427.935 68.3219C428.397 68.1679 428.808 67.9496 429.167 67.6671L429.861 71.7117C429.219 72.174 428.41 72.5335 427.434 72.7903C426.458 73.0471 425.456 73.1755 424.429 73.1755C422.965 73.1755 421.694 72.97 420.616 72.5592C419.563 72.1483 418.741 71.4934 418.15 70.5946C417.585 69.6958 417.29 68.5017 417.264 67.0123V49.2159L423.813 47.4055ZM429.552 53.5302V58.1911H413.952V53.5302H429.552ZM441.745 53.145C443.774 53.145 445.546 53.543 447.061 54.3391C448.602 55.1095 449.796 56.2523 450.643 57.7674C451.516 59.2569 451.953 61.0545 451.953 63.1602C451.953 65.266 451.516 67.0765 450.643 68.5916C449.796 70.081 448.602 71.2238 447.061 72.0199C445.546 72.7903 443.774 73.1755 441.745 73.1755C439.768 73.1755 438.008 72.7903 436.468 72.0199C434.927 71.2238 433.72 70.081 432.847 68.5916C431.999 67.0765 431.576 65.266 431.576 63.1602C431.576 61.0545 431.999 59.2569 432.847 57.7674C433.72 56.2523 434.927 55.1095 436.468 54.3391C438.008 53.543 439.768 53.145 441.745 53.145ZM441.745 57.8059C441 57.8059 440.358 57.9857 439.819 58.3452C439.28 58.7047 438.869 59.2825 438.586 60.0786C438.304 60.8747 438.163 61.9019 438.163 63.1602C438.163 64.4186 438.304 65.4458 438.586 66.2418C438.869 67.0123 439.28 67.5901 439.819 67.9753C440.358 68.3348 441 68.5145 441.745 68.5145C442.515 68.5145 443.17 68.3348 443.709 67.9753C444.249 67.5901 444.66 67.0123 444.942 66.2418C445.225 65.4458 445.366 64.4186 445.366 63.1602C445.366 61.9019 445.225 60.8747 444.942 60.0786C444.66 59.2825 444.249 58.7047 443.709 58.3452C443.17 57.9857 442.515 57.8059 441.745 57.8059Z" fill="white"/>
</g>
<path d="M563.972 77.0723V45.5216H576.483C578.616 45.5216 580.361 45.9525 581.72 46.8143C583.093 47.6615 584.108 48.7497 584.765 50.0789C585.437 51.4081 585.773 52.7812 585.773 54.198C585.773 55.9362 585.357 57.4115 584.524 58.6239C583.706 59.8362 582.589 60.6542 581.172 61.0778V59.9823C583.158 60.4351 584.663 61.3773 585.685 62.8087C586.723 64.2402 587.241 65.8688 587.241 67.6947C587.241 69.5644 586.883 71.2003 586.167 72.6026C585.452 74.0048 584.385 75.1003 582.969 75.8891C581.566 76.6779 579.828 77.0723 577.754 77.0723H563.972ZM569.319 72.0986H577.097C578.017 72.0986 578.842 71.9161 579.573 71.5509C580.303 71.1711 580.873 70.6453 581.282 69.9734C581.705 69.2868 581.917 68.4762 581.917 67.5413C581.917 66.6941 581.734 65.9346 581.369 65.2627C581.004 64.5908 580.471 64.0576 579.77 63.6632C579.069 63.2542 578.229 63.0497 577.25 63.0497H569.319V72.0986ZM569.319 58.1199H576.417C577.177 58.1199 577.856 57.9739 578.455 57.6817C579.054 57.3896 579.529 56.9587 579.879 56.389C580.23 55.8194 580.405 55.1182 580.405 54.2857C580.405 53.1901 580.055 52.2772 579.353 51.5469C578.652 50.8165 577.674 50.4514 576.417 50.4514H569.319V58.1199ZM602.068 77.7296C599.702 77.7296 597.635 77.1964 595.868 76.1301C594.1 75.0638 592.727 73.5958 591.748 71.7262C590.784 69.8419 590.302 67.6801 590.302 65.2408C590.302 62.7576 590.799 60.5812 591.792 58.7115C592.786 56.8418 594.166 55.3812 595.933 54.3295C597.701 53.2778 599.746 52.7519 602.068 52.7519C604.449 52.7519 606.523 53.2851 608.291 54.3514C610.058 55.4177 611.431 56.893 612.41 58.7772C613.388 60.6469 613.878 62.8014 613.878 65.2408C613.878 67.6947 613.381 69.8638 612.388 71.7481C611.409 73.6178 610.036 75.0857 608.269 76.152C606.501 77.2037 604.434 77.7296 602.068 77.7296ZM602.068 72.7779C604.172 72.7779 605.734 72.0767 606.757 70.6745C607.779 69.2722 608.291 67.461 608.291 65.2408C608.291 62.9475 607.772 61.1216 606.735 59.7632C605.698 58.3902 604.142 57.7036 602.068 57.7036C600.651 57.7036 599.483 58.025 598.563 58.6677C597.657 59.2958 596.985 60.1795 596.547 61.3188C596.109 62.4436 595.889 63.7509 595.889 65.2408C595.889 67.534 596.408 69.3672 597.445 70.7402C598.497 72.0986 600.038 72.7779 602.068 72.7779ZM619.143 77.0723V44.8643H624.424V77.0723H619.143ZM640.474 77.7296C638.298 77.7296 636.399 77.1818 634.777 76.0863C633.156 74.9908 631.9 73.5009 631.009 71.6166C630.118 69.7323 629.672 67.6071 629.672 65.2408C629.672 62.8452 630.118 60.7126 631.009 58.843C631.914 56.9587 633.192 55.4761 634.843 54.3952C636.494 53.2997 638.436 52.7519 640.671 52.7519C642.921 52.7519 644.805 53.2997 646.324 54.3952C647.858 55.4761 649.019 56.9587 649.808 58.843C650.597 60.7273 650.991 62.8598 650.991 65.2408C650.991 67.5925 650.597 69.7177 649.808 71.6166C649.019 73.5009 647.843 74.9908 646.28 76.0863C644.717 77.1818 642.782 77.7296 640.474 77.7296ZM641.285 72.997C642.702 72.997 643.841 72.6756 644.703 72.0329C645.579 71.3756 646.214 70.4627 646.609 69.2941C647.018 68.1256 647.222 66.7745 647.222 65.2408C647.222 63.6924 647.018 62.3413 646.609 61.1874C646.214 60.0188 645.594 59.1132 644.746 58.4705C643.899 57.8132 642.804 57.4845 641.46 57.4845C640.043 57.4845 638.875 57.8351 637.954 58.5362C637.034 59.2228 636.355 60.1576 635.917 61.3407C635.478 62.5093 635.259 63.8093 635.259 65.2408C635.259 66.6868 635.471 68.0014 635.895 69.1846C636.333 70.3531 636.998 71.2807 637.889 71.9672C638.78 72.6537 639.912 72.997 641.285 72.997ZM647.222 77.0723V60.4643H646.565V45.5216H651.889V77.0723H647.222ZM668.483 77.7296C666.117 77.7296 664.05 77.1964 662.283 76.1301C660.515 75.0638 659.142 73.5958 658.164 71.7262C657.2 69.8419 656.718 67.6801 656.718 65.2408C656.718 62.7576 657.214 60.5812 658.208 58.7115C659.201 56.8418 660.581 55.3812 662.349 54.3295C664.116 53.2778 666.161 52.7519 668.483 52.7519C670.864 52.7519 672.939 53.2851 674.706 54.3514C676.473 55.4177 677.846 56.893 678.825 58.7772C679.804 60.6469 680.293 62.8014 680.293 65.2408C680.293 67.6947 679.796 69.8638 678.803 71.7481C677.824 73.6178 676.451 75.0857 674.684 76.152C672.917 77.2037 670.85 77.7296 668.483 77.7296ZM668.483 72.7779C670.587 72.7779 672.15 72.0767 673.172 70.6745C674.195 69.2722 674.706 67.461 674.706 65.2408C674.706 62.9475 674.187 61.1216 673.15 59.7632C672.113 58.3902 670.558 57.7036 668.483 57.7036C667.067 57.7036 665.898 58.025 664.978 58.6677C664.072 59.2958 663.4 60.1795 662.962 61.3188C662.524 62.4436 662.305 63.7509 662.305 65.2408C662.305 67.534 662.823 69.3672 663.86 70.7402C664.912 72.0986 666.453 72.7779 668.483 72.7779Z" fill="white"/>
<path d="M520.753 60.4475H538.054C543.954 60.4475 548.738 65.231 548.738 71.1317C548.738 77.0325 543.954 81.8159 538.054 81.8159H520.753V60.4475Z" fill="white"/>
<path d="M520.753 41.75H532.208C536.633 41.75 540.221 45.3376 540.221 49.7632C540.221 54.1887 536.633 57.7763 532.208 57.7763H520.753V41.75Z" fill="white"/>
<g clip-path="url(#clip3_602_1084)">
<g clip-path="url(#clip4_602_1084)">
<path d="M776.141 43.4491C776.096 43.362 776.068 43.2668 776.06 43.1689C776.051 43.0711 776.062 42.9726 776.092 42.879C776.122 42.7854 776.17 42.6986 776.233 42.6235C776.296 42.5484 776.374 42.4866 776.461 42.4414C779.136 41.0809 782.109 40.4075 785.109 40.4822C788.11 40.5568 791.045 41.377 793.65 42.8689C793.735 42.918 793.81 42.9836 793.87 43.0618C793.93 43.14 793.974 43.2293 793.999 43.3245C794.024 43.4198 794.03 43.5191 794.017 43.6168C794.004 43.7144 793.971 43.8085 793.921 43.8935L785.317 58.6609C785.251 58.774 785.157 58.8678 785.044 58.933C784.93 58.9981 784.802 59.0323 784.671 59.0321H784.652C784.518 59.0285 784.387 58.9892 784.274 58.9181C784.16 58.847 784.068 58.7469 784.006 58.628L776.141 43.4491ZM784.209 62.9705V62.969L776.344 47.7902C776.253 47.6144 776.096 47.482 775.907 47.4217C775.718 47.3614 775.513 47.3783 775.337 47.4685C773.241 48.5433 771.378 50.0215 769.854 51.8183C768.331 53.6151 767.177 55.695 766.46 57.9387C765.742 60.1825 765.475 62.5458 765.673 64.8931C765.871 67.2405 766.531 69.5256 767.614 71.6173C768.698 73.709 770.184 75.5661 771.987 77.082C773.79 78.598 775.875 79.7429 778.121 80.4512C780.368 81.1594 782.732 81.4169 785.079 81.209C787.425 81.0011 789.708 80.3319 791.795 79.2397C791.97 79.1479 792.102 78.9905 792.162 78.8018C792.221 78.6131 792.204 78.4085 792.113 78.2326L784.209 62.9705ZM793.429 77.3176L793.489 77.4374C793.579 77.6139 793.735 77.7481 793.923 77.8115C794 77.8371 794.081 77.8473 794.162 77.8415C794.281 77.8382 794.397 77.8128 794.507 77.7666C794.779 77.6316 795.044 77.4817 795.3 77.3176C796.061 76.876 796.787 76.3756 797.47 75.8209H792.651L793.429 77.3176ZM791.872 74.3242H799.101C799.566 73.8572 799.996 73.357 800.389 72.8276H791.094L791.872 74.3242ZM790.331 71.3309H801.451C801.758 70.8504 802.033 70.3504 802.274 69.8342H789.552L790.331 71.3309ZM788.774 68.3375H802.933C803.132 67.8489 803.301 67.3492 803.442 66.8408H787.996L788.774 68.3375ZM787.218 65.3441H803.816C803.906 64.8502 803.981 64.3563 804.025 63.8474H786.454L787.218 65.3441ZM795.24 46.4259C795.156 46.3737 795.062 46.34 794.964 46.3271C794.866 46.3142 794.766 46.3224 794.671 46.3511C794.574 46.3732 794.483 46.4153 794.403 46.4745C794.323 46.5338 794.256 46.609 794.207 46.6953L793.803 47.3838H796.692C796.225 47.0388 795.741 46.719 795.24 46.4259ZM798.503 48.8805H792.935L792.067 50.3772H799.925C799.482 49.8496 799.007 49.3498 798.503 48.8805ZM801.047 51.8739H791.184L790.316 53.3706H801.96C801.69 52.8516 801.385 52.3515 801.047 51.8739ZM802.678 54.8673H789.448L788.58 56.3639H803.262C803.096 55.8543 802.901 55.3546 802.678 54.8673ZM803.681 57.8606H787.697L786.829 59.3573H803.951C803.891 58.8534 803.801 58.3536 803.681 57.8606ZM804.1 60.854H785.96L785.601 61.4677C785.536 61.5757 785.501 61.6989 785.498 61.8249C785.496 61.9509 785.526 62.0754 785.586 62.1861L785.676 62.3507H804.13C804.145 62.201 804.145 62.0364 804.145 61.8867C804.145 61.5425 804.13 61.1983 804.1 60.854Z" fill="white"/>
<path d="M775.797 46.7286C775.523 46.2087 774.877 46.0072 774.373 46.3102C770.386 48.7092 767.407 52.4984 766.025 56.9679C764.539 61.7772 765.023 66.9801 767.373 71.4321C769.722 75.8841 773.744 79.2204 778.553 80.7071C783.023 82.0887 787.832 81.7677 792.063 79.8298C792.597 79.585 792.795 78.9382 792.521 78.4183L784.159 62.5735L775.797 46.7286Z" fill="white"/>
</g>
<path d="M830.85 47.367C832.93 47.367 834.702 47.7008 836.165 48.3685C837.629 49.0362 838.746 49.9992 839.517 51.2575C840.287 52.5158 840.672 54.0438 840.672 55.8414C840.672 57.639 840.287 59.167 839.517 60.4253C838.746 61.6836 837.629 62.6466 836.165 63.3143C834.702 63.982 832.93 64.3158 830.85 64.3158H825.803V72.7903H819.178V47.367H830.85ZM829.81 59.3467C831.196 59.3467 832.236 59.0643 832.93 58.4993C833.649 57.9086 834.008 57.0227 834.008 55.8414C834.008 54.6601 833.649 53.787 832.93 53.222C832.236 52.6314 831.196 52.3361 829.81 52.3361H825.803V59.3467H829.81ZM844.446 72.7903V53.5302H850.224L850.494 57.6904C850.982 56.2523 851.701 55.1352 852.651 54.3391C853.627 53.543 854.859 53.145 856.349 53.145C856.837 53.145 857.248 53.1835 857.581 53.2605C857.941 53.3376 858.223 53.4403 858.429 53.5687L857.774 58.9615C857.517 58.8588 857.183 58.7818 856.772 58.7304C856.387 58.6534 855.912 58.6148 855.347 58.6148C854.577 58.6148 853.858 58.7818 853.19 59.1156C852.522 59.4495 851.983 59.9502 851.572 60.6179C851.187 61.2599 850.994 62.0817 850.994 63.0832V72.7903H844.446ZM870.171 73.1755C868.039 73.1755 866.19 72.7774 864.624 71.9814C863.083 71.1853 861.889 70.0425 861.042 68.5531C860.194 67.0636 859.77 65.266 859.77 63.1602C859.77 61.0545 860.194 59.2569 861.042 57.7674C861.889 56.278 863.07 55.1352 864.585 54.3391C866.126 53.543 867.885 53.145 869.863 53.145C871.891 53.145 873.612 53.543 875.024 54.3391C876.462 55.1095 877.554 56.1881 878.299 57.5748C879.043 58.9359 879.416 60.5023 879.416 62.2743C879.416 62.7365 879.403 63.1988 879.377 63.661C879.352 64.1232 879.313 64.5084 879.262 64.8166H864.008V61.3113H876.373L873.252 62.5054C873.252 60.9646 872.97 59.7833 872.405 58.9615C871.866 58.1398 871.018 57.7289 869.863 57.7289C869.041 57.7289 868.335 57.9215 867.744 58.3067C867.179 58.6919 866.743 59.2954 866.434 60.1171C866.152 60.9389 866.011 61.9918 866.011 63.2758C866.011 64.5341 866.178 65.5613 866.511 66.3574C866.845 67.1278 867.32 67.6928 867.937 68.0523C868.553 68.3861 869.298 68.5531 870.171 68.5531C871.147 68.5531 871.917 68.3605 872.482 67.9753C873.073 67.5901 873.509 67.0508 873.792 66.3574L879.031 68.0908C878.671 69.1951 878.042 70.1324 877.143 70.9028C876.27 71.6475 875.217 72.2125 873.984 72.5977C872.777 72.9829 871.506 73.1755 870.171 73.1755ZM891.168 73.1755C889.242 73.1755 887.445 72.8673 885.775 72.251C884.132 71.609 882.771 70.6974 881.692 69.5161L884.774 65.8952C885.416 66.7169 886.263 67.4103 887.316 67.9753C888.395 68.5145 889.589 68.7842 890.899 68.7842C891.695 68.7842 892.35 68.6686 892.863 68.4375C893.377 68.2064 893.634 67.8469 893.634 67.3589C893.634 66.9994 893.505 66.7169 893.248 66.5115C892.992 66.2804 892.478 66.0878 891.708 65.9337L889.011 65.3944C886.597 64.9065 884.877 64.1874 883.849 63.2373C882.848 62.2614 882.347 60.9903 882.347 59.4238C882.347 58.3709 882.668 57.3694 883.31 56.4192C883.952 55.4434 884.941 54.6601 886.276 54.0695C887.612 53.4531 889.319 53.145 891.399 53.145C893.351 53.145 895.072 53.4275 896.561 53.9924C898.051 54.5574 899.232 55.3792 900.105 56.4577L896.985 60.0016C896.369 59.2312 895.572 58.6277 894.597 58.1911C893.621 57.7546 892.645 57.5363 891.669 57.5363C891.053 57.5363 890.526 57.6005 890.09 57.7289C889.679 57.8316 889.371 57.9857 889.165 58.1911C888.96 58.3966 888.857 58.6534 888.857 58.9615C888.857 59.2954 889.011 59.5907 889.319 59.8475C889.653 60.0786 890.257 60.2841 891.13 60.4638L894.635 61.1572C896.612 61.5167 898.038 62.1715 898.911 63.1217C899.784 64.0719 900.221 65.2146 900.221 66.55C900.221 67.8083 899.887 68.9383 899.219 69.9398C898.551 70.9413 897.55 71.7374 896.214 72.328C894.879 72.893 893.197 73.1755 891.168 73.1755ZM911.669 47.4055V65.9337C911.669 66.8582 911.887 67.5259 912.324 67.9367C912.786 68.3219 913.415 68.5145 914.211 68.5145C914.828 68.5145 915.354 68.4503 915.791 68.3219C916.253 68.1679 916.664 67.9496 917.023 67.6671L917.717 71.7117C917.075 72.174 916.266 72.5335 915.29 72.7903C914.314 73.0471 913.312 73.1755 912.285 73.1755C910.821 73.1755 909.55 72.97 908.472 72.5592C907.419 72.1483 906.597 71.4934 906.006 70.5946C905.441 69.6958 905.146 68.5017 905.12 67.0123V49.2159L911.669 47.4055ZM917.408 53.5302V58.1911H901.808V53.5302H917.408ZM929.601 53.145C931.63 53.145 933.402 53.543 934.917 54.3391C936.458 55.1095 937.652 56.2523 938.499 57.7674C939.372 59.2569 939.809 61.0545 939.809 63.1602C939.809 65.266 939.372 67.0765 938.499 68.5916C937.652 70.081 936.458 71.2238 934.917 72.0199C933.402 72.7903 931.63 73.1755 929.601 73.1755C927.624 73.1755 925.864 72.7903 924.324 72.0199C922.783 71.2238 921.576 70.081 920.703 68.5916C919.855 67.0765 919.432 65.266 919.432 63.1602C919.432 61.0545 919.855 59.2569 920.703 57.7674C921.576 56.2523 922.783 55.1095 924.324 54.3391C925.864 53.543 927.624 53.145 929.601 53.145ZM929.601 57.8059C928.856 57.8059 928.214 57.9857 927.675 58.3452C927.136 58.7047 926.725 59.2825 926.442 60.0786C926.16 60.8747 926.019 61.9019 926.019 63.1602C926.019 64.4186 926.16 65.4458 926.442 66.2418C926.725 67.0123 927.136 67.5901 927.675 67.9753C928.214 68.3348 928.856 68.5145 929.601 68.5145C930.371 68.5145 931.026 68.3348 931.565 67.9753C932.105 67.5901 932.516 67.0123 932.798 66.2418C933.081 65.4458 933.222 64.4186 933.222 63.1602C933.222 61.9019 933.081 60.8747 932.798 60.0786C932.516 59.2825 932.105 58.7047 931.565 58.3452C931.026 57.9857 930.371 57.8059 929.601 57.8059Z" fill="white"/>
</g>
<path d="M1051.39 77.0723V45.5216H1063.9C1066.04 45.5216 1067.78 45.9525 1069.14 46.8143C1070.51 47.6615 1071.53 48.7497 1072.19 50.0789C1072.86 51.4081 1073.19 52.7812 1073.19 54.198C1073.19 55.9362 1072.78 57.4115 1071.94 58.6239C1071.13 59.8362 1070.01 60.6542 1068.59 61.0778V59.9823C1070.58 60.4351 1072.08 61.3773 1073.11 62.8087C1074.14 64.2402 1074.66 65.8688 1074.66 67.6947C1074.66 69.5644 1074.3 71.2003 1073.59 72.6026C1072.87 74.0048 1071.81 75.1003 1070.39 75.8891C1068.99 76.6779 1067.25 77.0723 1065.17 77.0723H1051.39ZM1056.74 72.0986H1064.52C1065.44 72.0986 1066.26 71.9161 1066.99 71.5509C1067.72 71.1711 1068.29 70.6453 1068.7 69.9734C1069.13 69.2868 1069.34 68.4762 1069.34 67.5413C1069.34 66.6941 1069.15 65.9346 1068.79 65.2627C1068.42 64.5908 1067.89 64.0576 1067.19 63.6632C1066.49 63.2542 1065.65 63.0497 1064.67 63.0497H1056.74V72.0986ZM1056.74 58.1199H1063.84C1064.6 58.1199 1065.28 57.9739 1065.88 57.6817C1066.47 57.3896 1066.95 56.9587 1067.3 56.389C1067.65 55.8194 1067.83 55.1182 1067.83 54.2857C1067.83 53.1901 1067.47 52.2772 1066.77 51.5469C1066.07 50.8165 1065.09 50.4514 1063.84 50.4514H1056.74V58.1199ZM1089.49 77.7296C1087.12 77.7296 1085.06 77.1964 1083.29 76.1301C1081.52 75.0638 1080.15 73.5958 1079.17 71.7262C1078.2 69.8419 1077.72 67.6801 1077.72 65.2408C1077.72 62.7576 1078.22 60.5812 1079.21 58.7115C1080.21 56.8418 1081.59 55.3812 1083.35 54.3295C1085.12 53.2778 1087.17 52.7519 1089.49 52.7519C1091.87 52.7519 1093.94 53.2851 1095.71 54.3514C1097.48 55.4177 1098.85 56.893 1099.83 58.7772C1100.81 60.6469 1101.3 62.8014 1101.3 65.2408C1101.3 67.6947 1100.8 69.8638 1099.81 71.7481C1098.83 73.6178 1097.46 75.0857 1095.69 76.152C1093.92 77.2037 1091.85 77.7296 1089.49 77.7296ZM1089.49 72.7779C1091.59 72.7779 1093.15 72.0767 1094.18 70.6745C1095.2 69.2722 1095.71 67.461 1095.71 65.2408C1095.71 62.9475 1095.19 61.1216 1094.16 59.7632C1093.12 58.3902 1091.56 57.7036 1089.49 57.7036C1088.07 57.7036 1086.9 58.025 1085.98 58.6677C1085.08 59.2958 1084.41 60.1795 1083.97 61.3188C1083.53 62.4436 1083.31 63.7509 1083.31 65.2408C1083.31 67.534 1083.83 69.3672 1084.87 70.7402C1085.92 72.0986 1087.46 72.7779 1089.49 72.7779ZM1106.56 77.0723V44.8643H1111.84V77.0723H1106.56ZM1127.89 77.7296C1125.72 77.7296 1123.82 77.1818 1122.2 76.0863C1120.58 74.9908 1119.32 73.5009 1118.43 71.6166C1117.54 69.7323 1117.09 67.6071 1117.09 65.2408C1117.09 62.8452 1117.54 60.7126 1118.43 58.843C1119.33 56.9587 1120.61 55.4761 1122.26 54.3952C1123.91 53.2997 1125.86 52.7519 1128.09 52.7519C1130.34 52.7519 1132.23 53.2997 1133.74 54.3952C1135.28 55.4761 1136.44 56.9587 1137.23 58.843C1138.02 60.7273 1138.41 62.8598 1138.41 65.2408C1138.41 67.5925 1138.02 69.7177 1137.23 71.6166C1136.44 73.5009 1135.26 74.9908 1133.7 76.0863C1132.14 77.1818 1130.2 77.7296 1127.89 77.7296ZM1128.71 72.997C1130.12 72.997 1131.26 72.6756 1132.12 72.0329C1133 71.3756 1133.63 70.4627 1134.03 69.2941C1134.44 68.1256 1134.64 66.7745 1134.64 65.2408C1134.64 63.6924 1134.44 62.3413 1134.03 61.1874C1133.63 60.0188 1133.01 59.1132 1132.17 58.4705C1131.32 57.8132 1130.22 57.4845 1128.88 57.4845C1127.46 57.4845 1126.29 57.8351 1125.37 58.5362C1124.45 59.2228 1123.78 60.1576 1123.34 61.3407C1122.9 62.5093 1122.68 63.8093 1122.68 65.2408C1122.68 66.6868 1122.89 68.0014 1123.32 69.1846C1123.75 70.3531 1124.42 71.2807 1125.31 71.9672C1126.2 72.6537 1127.33 72.997 1128.71 72.997ZM1134.64 77.0723V60.4643H1133.99V45.5216H1139.31V77.0723H1134.64ZM1155.9 77.7296C1153.54 77.7296 1151.47 77.1964 1149.7 76.1301C1147.94 75.0638 1146.56 73.5958 1145.58 71.7262C1144.62 69.8419 1144.14 67.6801 1144.14 65.2408C1144.14 62.7576 1144.63 60.5812 1145.63 58.7115C1146.62 56.8418 1148 55.3812 1149.77 54.3295C1151.54 53.2778 1153.58 52.7519 1155.9 52.7519C1158.28 52.7519 1160.36 53.2851 1162.13 54.3514C1163.89 55.4177 1165.27 56.893 1166.25 58.7772C1167.22 60.6469 1167.71 62.8014 1167.71 65.2408C1167.71 67.6947 1167.22 69.8638 1166.22 71.7481C1165.24 73.6178 1163.87 75.0857 1162.1 76.152C1160.34 77.2037 1158.27 77.7296 1155.9 77.7296ZM1155.9 72.7779C1158.01 72.7779 1159.57 72.0767 1160.59 70.6745C1161.62 69.2722 1162.13 67.461 1162.13 65.2408C1162.13 62.9475 1161.61 61.1216 1160.57 59.7632C1159.53 58.3902 1157.98 57.7036 1155.9 57.7036C1154.49 57.7036 1153.32 58.025 1152.4 58.6677C1151.49 59.2958 1150.82 60.1795 1150.38 61.3188C1149.94 62.4436 1149.73 63.7509 1149.73 65.2408C1149.73 67.534 1150.24 69.3672 1151.28 70.7402C1152.33 72.0986 1153.87 72.7779 1155.9 72.7779Z" fill="white"/>
<path d="M1008.17 60.4475H1025.47C1031.37 60.4475 1036.16 65.231 1036.16 71.1317C1036.16 77.0325 1031.37 81.8159 1025.47 81.8159H1008.17V60.4475Z" fill="white"/>
<path d="M1008.17 41.75H1019.63C1024.05 41.75 1027.64 45.3376 1027.64 49.7632C1027.64 54.1887 1024.05 57.7763 1019.63 57.7763H1008.17V41.75Z" fill="white"/>
<g clip-path="url(#clip5_602_1084)">
<g clip-path="url(#clip6_602_1084)">
<path d="M1264 43.4491C1263.95 43.362 1263.92 43.2668 1263.92 43.1689C1263.91 43.0711 1263.92 42.9726 1263.95 42.879C1263.98 42.7854 1264.03 42.6986 1264.09 42.6235C1264.15 42.5484 1264.23 42.4866 1264.32 42.4414C1266.99 41.0809 1269.96 40.4075 1272.97 40.4822C1275.97 40.5568 1278.9 41.377 1281.51 42.8689C1281.59 42.918 1281.67 42.9836 1281.73 43.0618C1281.79 43.14 1281.83 43.2293 1281.86 43.3245C1281.88 43.4198 1281.89 43.5191 1281.87 43.6168C1281.86 43.7144 1281.83 43.8085 1281.78 43.8935L1273.17 58.6609C1273.11 58.774 1273.01 58.8678 1272.9 58.933C1272.79 58.9981 1272.66 59.0323 1272.53 59.0321H1272.51C1272.37 59.0285 1272.24 58.9892 1272.13 58.9181C1272.02 58.847 1271.92 58.7469 1271.86 58.628L1264 43.4491ZM1272.07 62.9705V62.969L1264.2 47.7902C1264.11 47.6144 1263.95 47.482 1263.76 47.4217C1263.57 47.3614 1263.37 47.3783 1263.19 47.4685C1261.1 48.5433 1259.23 50.0215 1257.71 51.8183C1256.19 53.6151 1255.03 55.695 1254.32 57.9387C1253.6 60.1825 1253.33 62.5458 1253.53 64.8931C1253.73 67.2405 1254.39 69.5256 1255.47 71.6173C1256.55 73.709 1258.04 75.5661 1259.84 77.082C1261.65 78.598 1263.73 79.7429 1265.98 80.4512C1268.22 81.1594 1270.59 81.4169 1272.94 81.209C1275.28 81.0011 1277.56 80.3319 1279.65 79.2397C1279.83 79.1479 1279.96 78.9905 1280.02 78.8018C1280.08 78.6131 1280.06 78.4085 1279.97 78.2326L1272.07 62.9705ZM1281.29 77.3176L1281.34 77.4374C1281.44 77.6139 1281.59 77.7481 1281.78 77.8115C1281.86 77.8371 1281.94 77.8473 1282.02 77.8415C1282.14 77.8382 1282.25 77.8128 1282.36 77.7666C1282.64 77.6316 1282.9 77.4817 1283.16 77.3176C1283.92 76.876 1284.64 76.3756 1285.33 75.8209H1280.51L1281.29 77.3176ZM1279.73 74.3242H1286.96C1287.42 73.8572 1287.85 73.357 1288.24 72.8276H1278.95L1279.73 74.3242ZM1278.19 71.3309H1289.31C1289.61 70.8504 1289.89 70.3504 1290.13 69.8342H1277.41L1278.19 71.3309ZM1276.63 68.3375H1290.79C1290.99 67.8489 1291.16 67.3492 1291.3 66.8408H1275.85L1276.63 68.3375ZM1275.07 65.3441H1291.67C1291.76 64.8502 1291.84 64.3563 1291.88 63.8474H1274.31L1275.07 65.3441ZM1283.1 46.4259C1283.01 46.3737 1282.92 46.34 1282.82 46.3271C1282.72 46.3142 1282.62 46.3224 1282.53 46.3511C1282.43 46.3732 1282.34 46.4153 1282.26 46.4745C1282.18 46.5338 1282.11 46.609 1282.06 46.6953L1281.66 47.3838H1284.55C1284.08 47.0388 1283.6 46.719 1283.1 46.4259ZM1286.36 48.8805H1280.79L1279.92 50.3772H1287.78C1287.34 49.8496 1286.86 49.3498 1286.36 48.8805ZM1288.9 51.8739H1279.04L1278.17 53.3706H1289.82C1289.55 52.8516 1289.24 52.3515 1288.9 51.8739ZM1290.53 54.8673H1277.3L1276.44 56.3639H1291.12C1290.95 55.8543 1290.76 55.3546 1290.53 54.8673ZM1291.54 57.8606H1275.55L1274.68 59.3573H1291.81C1291.75 58.8534 1291.66 58.3536 1291.54 57.8606ZM1291.96 60.854H1273.82L1273.46 61.4677C1273.39 61.5757 1273.36 61.6989 1273.35 61.8249C1273.35 61.9509 1273.38 62.0754 1273.44 62.1861L1273.53 62.3507H1291.99C1292 62.201 1292 62.0364 1292 61.8867C1292 61.5425 1291.99 61.1983 1291.96 60.854Z" fill="white"/>
<path d="M1263.65 46.7286C1263.38 46.2087 1262.73 46.0072 1262.23 46.3102C1258.24 48.7092 1255.26 52.4984 1253.88 56.9679C1252.39 61.7772 1252.88 66.9801 1255.23 71.4321C1257.58 75.8841 1261.6 79.2204 1266.41 80.7071C1270.88 82.0887 1275.69 81.7677 1279.92 79.8298C1280.45 79.585 1280.65 78.9382 1280.38 78.4183L1272.02 62.5735L1263.65 46.7286Z" fill="white"/>
</g>
<path d="M1318.71 47.367C1320.79 47.367 1322.56 47.7008 1324.02 48.3685C1325.49 49.0362 1326.6 49.9992 1327.37 51.2575C1328.14 52.5158 1328.53 54.0438 1328.53 55.8414C1328.53 57.639 1328.14 59.167 1327.37 60.4253C1326.6 61.6836 1325.49 62.6466 1324.02 63.3143C1322.56 63.982 1320.79 64.3158 1318.71 64.3158H1313.66V72.7903H1307.03V47.367H1318.71ZM1317.67 59.3467C1319.05 59.3467 1320.09 59.0643 1320.79 58.4993C1321.5 57.9086 1321.86 57.0227 1321.86 55.8414C1321.86 54.6601 1321.5 53.787 1320.79 53.222C1320.09 52.6314 1319.05 52.3361 1317.67 52.3361H1313.66V59.3467H1317.67ZM1332.3 72.7903V53.5302H1338.08L1338.35 57.6904C1338.84 56.2523 1339.56 55.1352 1340.51 54.3391C1341.48 53.543 1342.72 53.145 1344.2 53.145C1344.69 53.145 1345.1 53.1835 1345.44 53.2605C1345.8 53.3376 1346.08 53.4403 1346.29 53.5687L1345.63 58.9615C1345.37 58.8588 1345.04 58.7818 1344.63 58.7304C1344.24 58.6534 1343.77 58.6148 1343.2 58.6148C1342.43 58.6148 1341.71 58.7818 1341.05 59.1156C1340.38 59.4495 1339.84 59.9502 1339.43 60.6179C1339.04 61.2599 1338.85 62.0817 1338.85 63.0832V72.7903H1332.3ZM1358.03 73.1755C1355.9 73.1755 1354.05 72.7774 1352.48 71.9814C1350.94 71.1853 1349.75 70.0425 1348.9 68.5531C1348.05 67.0636 1347.63 65.266 1347.63 63.1602C1347.63 61.0545 1348.05 59.2569 1348.9 57.7674C1349.75 56.278 1350.93 55.1352 1352.44 54.3391C1353.98 53.543 1355.74 53.145 1357.72 53.145C1359.75 53.145 1361.47 53.543 1362.88 54.3391C1364.32 55.1095 1365.41 56.1881 1366.15 57.5748C1366.9 58.9359 1367.27 60.5023 1367.27 62.2743C1367.27 62.7365 1367.26 63.1988 1367.23 63.661C1367.21 64.1232 1367.17 64.5084 1367.12 64.8166H1351.86V61.3113H1364.23L1361.11 62.5054C1361.11 60.9646 1360.83 59.7833 1360.26 58.9615C1359.72 58.1398 1358.87 57.7289 1357.72 57.7289C1356.9 57.7289 1356.19 57.9215 1355.6 58.3067C1355.04 58.6919 1354.6 59.2954 1354.29 60.1171C1354.01 60.9389 1353.87 61.9918 1353.87 63.2758C1353.87 64.5341 1354.03 65.5613 1354.37 66.3574C1354.7 67.1278 1355.18 67.6928 1355.79 68.0523C1356.41 68.3861 1357.15 68.5531 1358.03 68.5531C1359 68.5531 1359.77 68.3605 1360.34 67.9753C1360.93 67.5901 1361.37 67.0508 1361.65 66.3574L1366.89 68.0908C1366.53 69.1951 1365.9 70.1324 1365 70.9028C1364.13 71.6475 1363.07 72.2125 1361.84 72.5977C1360.63 72.9829 1359.36 73.1755 1358.03 73.1755ZM1379.02 73.1755C1377.1 73.1755 1375.3 72.8673 1373.63 72.251C1371.99 71.609 1370.63 70.6974 1369.55 69.5161L1372.63 65.8952C1373.27 66.7169 1374.12 67.4103 1375.17 67.9753C1376.25 68.5145 1377.45 68.7842 1378.75 68.7842C1379.55 68.7842 1380.21 68.6686 1380.72 68.4375C1381.23 68.2064 1381.49 67.8469 1381.49 67.3589C1381.49 66.9994 1381.36 66.7169 1381.1 66.5115C1380.85 66.2804 1380.33 66.0878 1379.56 65.9337L1376.87 65.3944C1374.45 64.9065 1372.73 64.1874 1371.71 63.2373C1370.7 62.2614 1370.2 60.9903 1370.2 59.4238C1370.2 58.3709 1370.52 57.3694 1371.17 56.4192C1371.81 55.4434 1372.8 54.6601 1374.13 54.0695C1375.47 53.4531 1377.18 53.145 1379.26 53.145C1381.21 53.145 1382.93 53.4275 1384.42 53.9924C1385.91 54.5574 1387.09 55.3792 1387.96 56.4577L1384.84 60.0016C1384.22 59.2312 1383.43 58.6277 1382.45 58.1911C1381.48 57.7546 1380.5 57.5363 1379.53 57.5363C1378.91 57.5363 1378.38 57.6005 1377.95 57.7289C1377.54 57.8316 1377.23 57.9857 1377.02 58.1911C1376.82 58.3966 1376.71 58.6534 1376.71 58.9615C1376.71 59.2954 1376.87 59.5907 1377.18 59.8475C1377.51 60.0786 1378.11 60.2841 1378.99 60.4638L1382.49 61.1572C1384.47 61.5167 1385.89 62.1715 1386.77 63.1217C1387.64 64.0719 1388.08 65.2146 1388.08 66.55C1388.08 67.8083 1387.74 68.9383 1387.08 69.9398C1386.41 70.9413 1385.41 71.7374 1384.07 72.328C1382.74 72.893 1381.05 73.1755 1379.02 73.1755ZM1399.53 47.4055V65.9337C1399.53 66.8582 1399.74 67.5259 1400.18 67.9367C1400.64 68.3219 1401.27 68.5145 1402.07 68.5145C1402.68 68.5145 1403.21 68.4503 1403.65 68.3219C1404.11 68.1679 1404.52 67.9496 1404.88 67.6671L1405.57 71.7117C1404.93 72.174 1404.12 72.5335 1403.15 72.7903C1402.17 73.0471 1401.17 73.1755 1400.14 73.1755C1398.68 73.1755 1397.41 72.97 1396.33 72.5592C1395.27 72.1483 1394.45 71.4934 1393.86 70.5946C1393.3 69.6958 1393 68.5017 1392.98 67.0123V49.2159L1399.53 47.4055ZM1405.26 53.5302V58.1911H1389.66V53.5302H1405.26ZM1417.46 53.145C1419.49 53.145 1421.26 53.543 1422.77 54.3391C1424.31 55.1095 1425.51 56.2523 1426.36 57.7674C1427.23 59.2569 1427.66 61.0545 1427.66 63.1602C1427.66 65.266 1427.23 67.0765 1426.36 68.5916C1425.51 70.081 1424.31 71.2238 1422.77 72.0199C1421.26 72.7903 1419.49 73.1755 1417.46 73.1755C1415.48 73.1755 1413.72 72.7903 1412.18 72.0199C1410.64 71.2238 1409.43 70.081 1408.56 68.5916C1407.71 67.0765 1407.29 65.266 1407.29 63.1602C1407.29 61.0545 1407.71 59.2569 1408.56 57.7674C1409.43 56.2523 1410.64 55.1095 1412.18 54.3391C1413.72 53.543 1415.48 53.145 1417.46 53.145ZM1417.46 57.8059C1416.71 57.8059 1416.07 57.9857 1415.53 58.3452C1414.99 58.7047 1414.58 59.2825 1414.3 60.0786C1414.02 60.8747 1413.87 61.9019 1413.87 63.1602C1413.87 64.4186 1414.02 65.4458 1414.3 66.2418C1414.58 67.0123 1414.99 67.5901 1415.53 67.9753C1416.07 68.3348 1416.71 68.5145 1417.46 68.5145C1418.23 68.5145 1418.88 68.3348 1419.42 67.9753C1419.96 67.5901 1420.37 67.0123 1420.65 66.2418C1420.94 65.4458 1421.08 64.4186 1421.08 63.1602C1421.08 61.9019 1420.94 60.8747 1420.65 60.0786C1420.37 59.2825 1419.96 58.7047 1419.42 58.3452C1418.88 57.9857 1418.23 57.8059 1417.46 57.8059Z" fill="white"/>
</g>
</g>
<rect x="0.708008" y="0.695312" width="1417.38" height="112.375" fill="url(#paint0_linear_602_1084)"/>
<defs>
<linearGradient id="paint0_linear_602_1084" x1="0.708008" y1="113.07" x2="1387.87" y2="113.07" gradientUnits="userSpaceOnUse">
<stop stop-color="#0A2640"/>
<stop offset="0.322917" stop-color="#0A2640" stop-opacity="0.109375"/>
<stop offset="0.744792" stop-color="#0A2640" stop-opacity="0"/>
<stop offset="1" stop-color="#0A2640"/>
</linearGradient>
<clipPath id="clip0_602_1084">
<rect width="1353.33" height="58" fill="white" transform="translate(33.333 40.5701)"/>
</clipPath>
<clipPath id="clip1_602_1084">
<rect width="177.037" height="49.8925" fill="white" transform="translate(276.425 35.1653)"/>
</clipPath>
<clipPath id="clip2_602_1084">
<rect width="39.5669" height="42.0924" fill="white" transform="translate(276.986 39.8093)"/>
</clipPath>
<clipPath id="clip3_602_1084">
<rect width="177.037" height="49.8925" fill="white" transform="translate(764.281 35.1653)"/>
</clipPath>
<clipPath id="clip4_602_1084">
<rect width="39.5669" height="42.0924" fill="white" transform="translate(764.842 39.8093)"/>
</clipPath>
<clipPath id="clip5_602_1084">
<rect width="177.037" height="49.8925" fill="white" transform="translate(1252.14 35.1653)"/>
</clipPath>
<clipPath id="clip6_602_1084">
<rect width="39.5669" height="42.0924" fill="white" transform="translate(1252.7 39.8093)"/>
</clipPath>
</defs>
</svg>
